M48
;DRILL file {KiCad 4.0.2+e4-6225~38~ubuntu14.04.1-stable} date sam. 02 juil. 2016 22:25:41 CEST
;FORMAT={3:3/ absolute / metric / keep zeros}
FMAT,2
METRIC,TZ
T1C0.400
T2C0.762
T3C0.800
T4C1.000
T5C1.001
T6C1.016
T7C1.100
T8C1.270
T9C1.500
T10C2.301
T11C1.800
T12C2.000
T13C2.750
T14C3.000
T15C4.800
%
G90
G05
M71
T1
X110900Y-105250
X111500Y-091000
X125000Y-108500
X125600Y-090750
X132000Y-102000
X133500Y-114500
X142500Y-097431
X144000Y-092750
X145000Y-093750
X146130Y-102000
X146130Y-115080
X149500Y-073750
X152383Y-080867
X154000Y-115000
X155750Y-080250
X157250Y-102750
X158250Y-113000
X159000Y-114000
X167750Y-098000
X175000Y-098750
X175250Y-106250
X178500Y-080250
X178500Y-087000
T2
X105380Y-113190
X105380Y-115730
X105380Y-118270
X105380Y-120810
X113000Y-113190
X113000Y-115730
X113000Y-118270
X113000Y-120810
T3
X131977Y-084288
X132591Y-086753
X133206Y-089218
X133820Y-091682
X134435Y-094147
X135049Y-096611
X135664Y-099076
X136278Y-101540
X136893Y-104005
X136899Y-093532
X137507Y-106469
X138122Y-108934
X138736Y-111398
X141201Y-110784
X143665Y-110170
X146130Y-109555
X146757Y-091074
X146764Y-080602
X147378Y-083066
X147993Y-085531
X148594Y-108941
X148607Y-087995
X149222Y-090460
X149836Y-092924
X150451Y-095389
X151059Y-108326
X151065Y-097853
X151680Y-100318
X152294Y-102782
X152909Y-105247
X153523Y-107712
T4
X088250Y-085500
X088250Y-095500
X095000Y-102500
X095000Y-124500
X095750Y-045050
X097250Y-056800
X098250Y-086500
X098250Y-088500
X098250Y-090500
X098250Y-092500
X098250Y-094500
X098500Y-118000
X098500Y-140000
X098750Y-045050
X099000Y-102500
X099000Y-124500
X099750Y-076500
X105750Y-074250
X109250Y-071750
X109250Y-075250
X109250Y-078750
X109250Y-082250
X111500Y-047000
X111500Y-051000
X111500Y-055000
X111500Y-059000
X113250Y-071750
X113250Y-075250
X113250Y-078750
X113250Y-082250
X117250Y-071750
X117250Y-074750
X120500Y-071750
X120500Y-074750
X123750Y-071750
X123750Y-074750
X123750Y-129250
X123750Y-129250
X123750Y-131250
X123750Y-131250
X123750Y-133250
X123750Y-133250
X123750Y-135250
X123750Y-135250
X127000Y-071750
X127000Y-074750
X127500Y-140500
X130750Y-071750
X130750Y-075750
X130750Y-079750
X132500Y-064750
X132750Y-051500
X134250Y-071750
X134250Y-075750
X134250Y-079750
X134300Y-131500
X134300Y-134500
X135250Y-049000
X137750Y-046500
X137750Y-071750
X137750Y-075750
X137750Y-079750
X141250Y-071750
X141250Y-075750
X143500Y-064750
X144750Y-071750
X144750Y-075750
X146050Y-133000
X147503Y-064750
X148250Y-071750
X150118Y-076819
X152383Y-075763
X154740Y-074664
X158425Y-093689
X158503Y-064750
X160782Y-092590
X162036Y-071262
X164301Y-070205
X169845Y-088364
X170750Y-054750
X170750Y-058750
X170750Y-062750
X172201Y-087265
X172800Y-118750
X172800Y-121750
X174500Y-054750
X174500Y-060750
X174500Y-062750
X177750Y-128050
X178500Y-102250
X179250Y-139800
X180750Y-128050
X184500Y-053750
X184500Y-063750
X184550Y-120250
T5
X094667Y-065428
X094667Y-067968
X094667Y-070000
X094667Y-072540
X121750Y-116500
X128509Y-112981
X180500Y-075750
X183040Y-075750
T6
X091210Y-079750
X093750Y-079750
X099750Y-065210
X099750Y-067750
X099750Y-070290
X099750Y-072830
X099750Y-080250
X099750Y-082790
X132750Y-055500
X132750Y-058040
X135290Y-055500
X135290Y-058040
X137830Y-055500
X137830Y-058040
X140370Y-055500
X140370Y-058040
X142250Y-044460
X142250Y-047000
X142910Y-055500
X142910Y-058040
X144790Y-044460
X144790Y-047000
X145450Y-055500
X145450Y-058040
X147330Y-044460
X147330Y-047000
X147990Y-055500
X147990Y-058040
X149870Y-044460
X149870Y-047000
X150530Y-055500
X150530Y-058040
X150750Y-125210
X150750Y-127750
X150750Y-130290
X150750Y-132830
X152410Y-044460
X152410Y-047000
X153070Y-055500
X153070Y-058040
X154950Y-044460
X154950Y-047000
X155610Y-055500
X155610Y-058040
X155848Y-140750
X157490Y-044460
X157490Y-047000
X158150Y-055500
X158150Y-058040
X158388Y-140750
X160030Y-044460
X160030Y-047000
X160690Y-055500
X160690Y-058040
X160928Y-140750
X162570Y-044460
X162570Y-047000
X163230Y-055500
X163230Y-058040
X163468Y-140750
X165110Y-044460
X165110Y-047000
X167650Y-044460
X167650Y-047000
X170190Y-044460
X170190Y-047000
X172730Y-044460
X172730Y-047000
X174500Y-072750
X177040Y-072750
X177500Y-110000
X180040Y-110000
T7
X114750Y-048000
X114750Y-066000
X128250Y-048000
X128250Y-066000
T8
X116420Y-081000
X126580Y-078460
X126580Y-083540
T9
X105250Y-053000
X105250Y-057000
X108250Y-049000
X108250Y-053000
T10
X092000Y-061872
X092000Y-075588
T11
X094000Y-046500
X095250Y-140250
X095500Y-118200
X097000Y-101000
X097000Y-122750
X099750Y-055750
X133500Y-067000
X136250Y-136250
X142400Y-062500
X143750Y-129750
X148600Y-067000
X157500Y-062600
X167500Y-058750
X174750Y-123500
X176000Y-130000
X178250Y-049500
X178250Y-068000
X182250Y-138000
X183500Y-117750
X184250Y-049500
X184250Y-068000
T12
X114250Y-062000
T13
X089750Y-058000
X106060Y-082120
X107590Y-087710
X128670Y-108540
X133500Y-111080
X141620Y-115900
X155090Y-096850
X182010Y-082890
X182010Y-105740
X183280Y-096850
T14
X105650Y-124800
X124750Y-123300
X167328Y-124550
X167328Y-140550
T15
X117000Y-119080
X170830Y-108790
T4
X160578Y-132050G85X160578Y-134050
G05
X162578Y-129050G85X160578Y-129050
G05
X162578Y-137050G85X160578Y-137050
G05
X172328Y-128050G85X169328Y-128050
G05
X172328Y-136050G85X169328Y-136050
G05
T9
X107250Y-045000G85X106250Y-045000
G05
X107250Y-061000G85X106250Y-061000
G05
T0
M30
