G04 #@! TF.FileFunction,Profile,NP*
%FSLAX46Y46*%
G04 Gerber Fmt 4.6, Leading zero omitted, Abs format (unit mm)*
G04 Created by KiCad (PCBNEW 4.0.2+e4-6225~38~ubuntu14.04.1-stable) date sam. 02 juil. 2016 22:13:44 CEST*
%MOMM*%
G01*
G04 APERTURE LIST*
%ADD10C,0.100000*%
%ADD11C,0.150000*%
G04 APERTURE END LIST*
D10*
D11*
X154500000Y-132000000D02*
X157250000Y-132000000D01*
X154500000Y-132000000D02*
G75*
G03X154000000Y-132500000I0J-500000D01*
G01*
X156250000Y-126250000D02*
X156750000Y-125750000D01*
X156250000Y-128750000D02*
X156250000Y-126250000D01*
X103500000Y-135000000D02*
G75*
G03X101500000Y-135000000I-1000000J0D01*
G01*
X182750000Y-44750000D02*
G75*
G03X182000000Y-44000000I-750000J0D01*
G01*
X174250000Y-47500000D02*
X174250000Y-47250000D01*
X175000000Y-46500000D02*
X178500000Y-46500000D01*
X174250000Y-44000000D02*
G75*
G03X175750000Y-44000000I750000J0D01*
G01*
X175000000Y-46500000D02*
G75*
G03X174250000Y-47250000I0J-750000D01*
G01*
X182000000Y-44000000D02*
X175750000Y-44000000D01*
X182750000Y-47250000D02*
X182750000Y-44750000D01*
X184500000Y-48000000D02*
X183500000Y-48000000D01*
X182750000Y-47250000D02*
G75*
G03X183500000Y-48000000I750000J0D01*
G01*
X178500000Y-48000000D02*
G75*
G03X178500000Y-46500000I0J750000D01*
G01*
X175250000Y-51000000D02*
G75*
G03X175750000Y-50500000I0J500000D01*
G01*
X173000000Y-51500000D02*
G75*
G02X173500000Y-51000000I500000J0D01*
G01*
X175250000Y-51000000D02*
X173500000Y-51000000D01*
X175750000Y-50500000D02*
X175750000Y-49500000D01*
X173000000Y-52750000D02*
X173000000Y-51500000D01*
X173000000Y-52750000D02*
G75*
G02X172500000Y-53250000I-500000J0D01*
G01*
X173000000Y-66000000D02*
G75*
G03X173500000Y-66500000I500000J0D01*
G01*
X175750000Y-67000000D02*
X175750000Y-68000000D01*
X170750000Y-64250000D02*
X172500000Y-64250000D01*
X175250000Y-66500000D02*
G75*
G02X175750000Y-67000000I0J-500000D01*
G01*
X175250000Y-66500000D02*
X173500000Y-66500000D01*
X173000000Y-64750000D02*
G75*
G03X172500000Y-64250000I-500000J0D01*
G01*
X182500000Y-69500000D02*
X184500000Y-69500000D01*
X177500000Y-71000000D02*
G75*
G03X177500000Y-69500000I0J750000D01*
G01*
X182500000Y-69500000D02*
G75*
G03X182500000Y-71000000I0J-750000D01*
G01*
X175750000Y-68000000D02*
G75*
G03X177250000Y-69500000I1500000J0D01*
G01*
X184500000Y-69500000D02*
G75*
G03X186000000Y-68000000I0J1500000D01*
G01*
X186000000Y-49500000D02*
G75*
G03X184500000Y-48000000I-1500000J0D01*
G01*
X177250000Y-48000000D02*
G75*
G03X175750000Y-49500000I0J-1500000D01*
G01*
X101500000Y-62500000D02*
X101500000Y-72500000D01*
X173000000Y-64750000D02*
X173000000Y-66000000D01*
X170750000Y-53250000D02*
X172500000Y-53250000D01*
X170750000Y-53250000D02*
G75*
G03X169250000Y-54750000I0J-1500000D01*
G01*
X169250000Y-54750000D02*
X169250000Y-55750000D01*
X167500000Y-57250000D02*
X167750000Y-57250000D01*
X167750000Y-57250000D02*
G75*
G03X169250000Y-55750000I0J1500000D01*
G01*
X178500000Y-48000000D02*
X177250000Y-48000000D01*
X186000000Y-68000000D02*
X186000000Y-49500000D01*
X177250000Y-69500000D02*
X177500000Y-69500000D01*
X169250000Y-61750000D02*
X169250000Y-62750000D01*
X167500000Y-60250000D02*
X167750000Y-60250000D01*
X169250000Y-61750000D02*
G75*
G03X167750000Y-60250000I-1500000J0D01*
G01*
X167500000Y-57250000D02*
G75*
G03X167500000Y-60250000I0J-1500000D01*
G01*
X169250000Y-62750000D02*
G75*
G03X170750000Y-64250000I1500000J0D01*
G01*
X93750000Y-60500000D02*
G75*
G02X92500000Y-59250000I0J1250000D01*
G01*
X92500000Y-59250000D02*
X92500000Y-58500000D01*
X129750000Y-48000000D02*
X129750000Y-52500000D01*
X131250000Y-51000000D02*
X131250000Y-52500000D01*
X129750000Y-52500000D02*
G75*
G03X131250000Y-52500000I750000J0D01*
G01*
X131250000Y-57500000D02*
G75*
G03X129750000Y-57500000I-750000J0D01*
G01*
X155500000Y-59500000D02*
X163750000Y-59500000D01*
X155500000Y-61000000D02*
X156000000Y-61000000D01*
X155500000Y-59500000D02*
G75*
G03X155500000Y-61000000I0J-750000D01*
G01*
X150500000Y-61000000D02*
G75*
G03X150500000Y-59500000I0J750000D01*
G01*
X132250000Y-59500000D02*
X135500000Y-59500000D01*
X140500000Y-61000000D02*
X141000000Y-61000000D01*
X135500000Y-61000000D02*
G75*
G03X135500000Y-59500000I0J750000D01*
G01*
X140500000Y-59500000D02*
G75*
G03X140500000Y-61000000I0J-750000D01*
G01*
X155500000Y-70000000D02*
X161500000Y-70000000D01*
X140500000Y-70000000D02*
X150500000Y-70000000D01*
X128250000Y-70000000D02*
X135500000Y-70000000D01*
X128250000Y-67500000D02*
G75*
G03X128250000Y-70000000I0J-1250000D01*
G01*
X122750000Y-70000000D02*
G75*
G03X122750000Y-67500000I0J1250000D01*
G01*
X155500000Y-68500000D02*
G75*
G03X155500000Y-70000000I0J-750000D01*
G01*
X150500000Y-70000000D02*
G75*
G03X150500000Y-68500000I0J750000D01*
G01*
X135500000Y-70000000D02*
G75*
G03X135500000Y-68500000I0J750000D01*
G01*
X140500000Y-68500000D02*
G75*
G03X140500000Y-70000000I0J-750000D01*
G01*
X106000000Y-70000000D02*
X108250000Y-70000000D01*
X113750000Y-67500000D02*
G75*
G03X113750000Y-70000000I0J-1250000D01*
G01*
X108250000Y-70000000D02*
G75*
G03X108250000Y-67500000I0J1250000D01*
G01*
X156000000Y-68500000D02*
X155502758Y-68500000D01*
X150002758Y-68500000D02*
X150502758Y-68500000D01*
X156002758Y-68500000D02*
G75*
G03X156002758Y-61000000I0J3750000D01*
G01*
X150000000Y-61000000D02*
X150500000Y-61000000D01*
X150002758Y-61000000D02*
G75*
G03X150002758Y-68500000I0J-3750000D01*
G01*
X166750000Y-71000000D02*
X177500000Y-71000000D01*
X165250000Y-68250000D02*
X166750000Y-71000000D01*
X161500000Y-70000000D02*
X165250000Y-68250000D01*
X132250000Y-59500000D02*
G75*
G02X131250000Y-58500000I0J1000000D01*
G01*
X164750000Y-58500000D02*
G75*
G02X163750000Y-59500000I-1000000J0D01*
G01*
X174250000Y-47500000D02*
G75*
G02X173250000Y-48500000I-1000000J0D01*
G01*
X173250000Y-43000000D02*
G75*
G02X174250000Y-44000000I0J-1000000D01*
G01*
X172250000Y-48500000D02*
X173250000Y-48500000D01*
X164750000Y-55500000D02*
X172250000Y-48500000D01*
X164750000Y-58500000D02*
X164750000Y-55500000D01*
X140500000Y-59500000D02*
X150500000Y-59500000D01*
X131250000Y-57500000D02*
X131250000Y-58500000D01*
X139250000Y-43000000D02*
X131250000Y-51000000D01*
X173250000Y-43000000D02*
X139250000Y-43000000D01*
X99500000Y-60500000D02*
X93750000Y-60500000D01*
X99500000Y-60500000D02*
G75*
G02X101500000Y-62500000I0J-2000000D01*
G01*
X101500000Y-93000000D02*
G75*
G02X96500000Y-98000000I-5000000J0D01*
G01*
X90000000Y-56000000D02*
G75*
G02X92500000Y-58500000I0J-2500000D01*
G01*
X96500000Y-98000000D02*
X86000000Y-98000000D01*
X101500000Y-77500000D02*
X101500000Y-88000000D01*
X86000000Y-56000000D02*
X90000000Y-56000000D01*
X86000000Y-98000000D02*
X86000000Y-56000000D01*
X105750000Y-43500000D02*
G75*
G03X103750000Y-45500000I0J-2000000D01*
G01*
X103750000Y-63000000D02*
G75*
G03X108250000Y-67500000I4500000J0D01*
G01*
X128250000Y-67500000D02*
G75*
G03X129750000Y-66000000I0J1500000D01*
G01*
X129750000Y-48000000D02*
G75*
G03X128250000Y-46500000I-1500000J0D01*
G01*
X113500000Y-46500000D02*
X128250000Y-46500000D01*
X110500000Y-43500000D02*
X113500000Y-46500000D01*
X129750000Y-66000000D02*
X129750000Y-57500000D01*
X105750000Y-43500000D02*
X110500000Y-43500000D01*
X103750000Y-63000000D02*
X103750000Y-45500000D01*
X122750000Y-67500000D02*
X113750000Y-67500000D01*
X103750000Y-48250000D02*
X103750000Y-53250000D01*
X101750000Y-48250000D02*
G75*
G03X103750000Y-48250000I1000000J0D01*
G01*
X103750000Y-53250000D02*
G75*
G03X101750000Y-53250000I-1000000J0D01*
G01*
X101750000Y-53800000D02*
X101750000Y-53250000D01*
X92750000Y-53800000D02*
X92750000Y-47550000D01*
X92750000Y-53800000D02*
G75*
G03X101750000Y-53800000I4500000J0D01*
G01*
X101750000Y-47550000D02*
X101750000Y-48250000D01*
X101750000Y-47550000D02*
G75*
G03X92750000Y-47550000I-4500000J0D01*
G01*
X172750000Y-127250000D02*
X172750000Y-131000000D01*
X174750000Y-136750000D02*
X174750000Y-136000000D01*
X172750000Y-131000000D02*
G75*
G03X174750000Y-131000000I1000000J0D01*
G01*
X174750000Y-136000000D02*
G75*
G03X172750000Y-136000000I-1000000J0D01*
G01*
X174750000Y-131000000D02*
X174750000Y-130500000D01*
X174750000Y-136750000D02*
G75*
G03X183750000Y-136750000I4500000J0D01*
G01*
X183750000Y-130500000D02*
G75*
G03X174750000Y-130500000I-4500000J0D01*
G01*
X183750000Y-130500000D02*
X183750000Y-136750000D01*
X181000000Y-113750000D02*
G75*
G03X181000000Y-115750000I0J-1000000D01*
G01*
X168750000Y-113750000D02*
X176000000Y-113750000D01*
X154000000Y-132500000D02*
X154000000Y-133500000D01*
X168750000Y-113750000D02*
G75*
G03X156750000Y-125750000I0J-12000000D01*
G01*
X158250000Y-127750000D02*
X158250000Y-128750000D01*
X176000000Y-115750000D02*
G75*
G03X176000000Y-113750000I0J1000000D01*
G01*
X181550000Y-124750000D02*
G75*
G03X181550000Y-115750000I0J4500000D01*
G01*
X181550000Y-115750000D02*
X181000000Y-115750000D01*
X175300000Y-115750000D02*
X176000000Y-115750000D01*
X181550000Y-124750000D02*
X175300000Y-124750000D01*
X175300000Y-115750000D02*
G75*
G03X175300000Y-124750000I0J-4500000D01*
G01*
X167750000Y-122250000D02*
X163750000Y-122250000D01*
X154750000Y-139750000D02*
X154750000Y-141750000D01*
X103500000Y-77500000D02*
X103500000Y-88000000D01*
X101500000Y-104000000D02*
X101500000Y-107500000D01*
X101500000Y-115500000D02*
X101500000Y-112500000D01*
X92500000Y-115500000D02*
G75*
G03X101500000Y-115500000I4500000J0D01*
G01*
X101500000Y-72500000D02*
G75*
G03X103500000Y-72500000I1000000J0D01*
G01*
X101500000Y-104000000D02*
G75*
G03X92500000Y-104000000I-4500000J0D01*
G01*
X103500000Y-77500000D02*
G75*
G03X101500000Y-77500000I-1000000J0D01*
G01*
X92500000Y-104000000D02*
X92500000Y-115500000D01*
X155250000Y-142250000D02*
G75*
G02X154750000Y-141750000I0J500000D01*
G01*
X172750000Y-137750000D02*
G75*
G02X168250000Y-142250000I-4500000J0D01*
G01*
X142300000Y-126500000D02*
X149000000Y-126500000D01*
X136800000Y-128500000D02*
G75*
G03X136800000Y-137500000I0J-4500000D01*
G01*
X142300000Y-126500000D02*
G75*
G03X142300000Y-128500000I0J-1000000D01*
G01*
X143050000Y-128500000D02*
X142300000Y-128500000D01*
X143050000Y-137500000D02*
G75*
G03X143050000Y-128500000I0J4500000D01*
G01*
X136800000Y-128500000D02*
X137600000Y-128500000D01*
X143050000Y-137500000D02*
X136800000Y-137500000D01*
X137600000Y-128500000D02*
G75*
G03X137600000Y-126500000I0J1000000D01*
G01*
X103500000Y-130000000D02*
X103500000Y-112500000D01*
X158250000Y-136250000D02*
G75*
G02X155750000Y-138750000I-2500000J0D01*
G01*
X181000000Y-113750000D02*
X182000000Y-113750000D01*
X156250000Y-128750000D02*
G75*
G03X158250000Y-128750000I1000000J0D01*
G01*
X158250000Y-133000000D02*
G75*
G03X157250000Y-132000000I-1000000J0D01*
G01*
X154750000Y-139750000D02*
G75*
G02X155750000Y-138750000I1000000J0D01*
G01*
X167750000Y-122250000D02*
G75*
G02X172750000Y-127250000I0J-5000000D01*
G01*
X158250000Y-127750000D02*
G75*
G02X163750000Y-122250000I5500000J0D01*
G01*
X158250000Y-136250000D02*
X158250000Y-133000000D01*
X168250000Y-142250000D02*
X155250000Y-142250000D01*
X172750000Y-136000000D02*
X172750000Y-137750000D01*
X149000000Y-134750000D02*
X149000000Y-126500000D01*
X152750000Y-134750000D02*
X149000000Y-134750000D01*
X152750000Y-134750000D02*
G75*
G03X154000000Y-133500000I0J1250000D01*
G01*
X101500000Y-107500000D02*
G75*
G03X103500000Y-107500000I1000000J0D01*
G01*
X103500000Y-112500000D02*
G75*
G03X101500000Y-112500000I-1000000J0D01*
G01*
X101500000Y-88000000D02*
G75*
G03X103500000Y-88000000I1000000J0D01*
G01*
X103500000Y-107500000D02*
X103500000Y-93000000D01*
X103500000Y-93000000D02*
G75*
G03X101500000Y-93000000I-1000000J0D01*
G01*
X103500000Y-137750000D02*
X103500000Y-135000000D01*
X101500000Y-130000000D02*
G75*
G03X103500000Y-130000000I1000000J0D01*
G01*
X103500000Y-137750000D02*
G75*
G03X108000000Y-142250000I4500000J0D01*
G01*
X131000000Y-128750000D02*
X131000000Y-139000000D01*
X127750000Y-142250000D02*
G75*
G03X131000000Y-139000000I0J3250000D01*
G01*
X133250000Y-126500000D02*
G75*
G03X131000000Y-128750000I0J-2250000D01*
G01*
X141000000Y-68500000D02*
G75*
G03X141000000Y-61000000I0J3750000D01*
G01*
X135000000Y-68500000D02*
X135500000Y-68500000D01*
X141000000Y-68500000D02*
X140500000Y-68500000D01*
X135000000Y-61000000D02*
X135500000Y-61000000D01*
X135000000Y-61000000D02*
G75*
G03X135000000Y-68500000I0J-3750000D01*
G01*
X101500000Y-126000000D02*
G75*
G03X92500000Y-126000000I-4500000J0D01*
G01*
X101500000Y-137500000D02*
X101500000Y-135000000D01*
X92500000Y-126000000D02*
X92500000Y-137500000D01*
X92500000Y-137500000D02*
G75*
G03X101500000Y-137500000I4500000J0D01*
G01*
X101500000Y-126000000D02*
X101500000Y-130000000D01*
X106000000Y-70000000D02*
G75*
G03X103500000Y-72500000I0J-2500000D01*
G01*
X182000000Y-113750000D02*
G75*
G03X185000000Y-110750000I0J3000000D01*
G01*
X185000000Y-73500000D02*
G75*
G03X182500000Y-71000000I-2500000J0D01*
G01*
X108000000Y-142250000D02*
X127750000Y-142250000D01*
X133250000Y-126500000D02*
X137600000Y-126500000D01*
X185000000Y-110750000D02*
X185000000Y-73500000D01*
X122750000Y-70000000D02*
X113750000Y-70000000D01*
M02*
