G04 #@! TF.FileFunction,Soldermask,Bot*
%FSLAX46Y46*%
G04 Gerber Fmt 4.6, Leading zero omitted, Abs format (unit mm)*
G04 Created by KiCad (PCBNEW 4.0.2+e4-6225~38~ubuntu14.04.1-stable) date sam. 02 juil. 2016 22:13:44 CEST*
%MOMM*%
G01*
G04 APERTURE LIST*
%ADD10C,0.100000*%
%ADD11C,2.400000*%
%ADD12O,4.400000X2.900000*%
%ADD13O,2.900000X4.400000*%
%ADD14O,5.400000X2.900000*%
%ADD15C,2.432000*%
%ADD16C,2.305000*%
%ADD17R,2.127200X2.432000*%
%ADD18O,2.127200X2.432000*%
%ADD19R,2.432000X2.127200*%
%ADD20O,2.432000X2.127200*%
%ADD21R,2.400000X2.400000*%
%ADD22C,2.398980*%
%ADD23R,3.400000X1.700000*%
%ADD24R,2.432000X2.432000*%
%ADD25O,2.432000X2.432000*%
%ADD26R,2.127200X2.127200*%
%ADD27O,2.127200X2.127200*%
%ADD28C,1.700000*%
%ADD29C,2.900000*%
%ADD30O,3.900000X2.900000*%
%ADD31R,2.900000X1.900000*%
%ADD32C,1.901140*%
%ADD33C,3.399740*%
G04 APERTURE END LIST*
D10*
D11*
X132500000Y-64750000D03*
X137750000Y-75750000D03*
X137750000Y-71750000D03*
X130750000Y-75750000D03*
X134250000Y-75750000D03*
X134250000Y-71750000D03*
X130750000Y-71750000D03*
X141250000Y-71750000D03*
X170750000Y-58750000D03*
X141250000Y-75750000D03*
X172800000Y-121750000D03*
X98750000Y-45050000D03*
X177750000Y-128050000D03*
X127500000Y-140500000D03*
X172800000Y-118750000D03*
X95750000Y-45050000D03*
X180750000Y-128050000D03*
X109250000Y-82250000D03*
X109250000Y-71750000D03*
X109250000Y-78750000D03*
X98500000Y-140000000D03*
X184550000Y-120250000D03*
X109250000Y-75250000D03*
X113250000Y-71750000D03*
X95000000Y-124500000D03*
X95000000Y-102500000D03*
X143500000Y-64750000D03*
X158502758Y-64750000D03*
X147502758Y-64750000D03*
X123750000Y-74750000D03*
X134250000Y-79750000D03*
X137750000Y-79750000D03*
X120500000Y-71750000D03*
X105750000Y-74250000D03*
X148250000Y-71750000D03*
X123750000Y-71750000D03*
X120500000Y-74750000D03*
X98500000Y-118000000D03*
X144750000Y-71750000D03*
X113250000Y-78750000D03*
X178500000Y-102250000D03*
X113250000Y-75250000D03*
X113250000Y-82250000D03*
X179250000Y-139800000D03*
X99000000Y-102500000D03*
X127000000Y-71750000D03*
X127000000Y-74750000D03*
X130750000Y-79750000D03*
X99000000Y-124500000D03*
X134300000Y-131500000D03*
X134300000Y-134500000D03*
X146050000Y-133000000D03*
D12*
X161578150Y-137050000D03*
X161578150Y-129050000D03*
D13*
X160578150Y-133050000D03*
D14*
X170828150Y-128050000D03*
X170828150Y-136050000D03*
D15*
X126580000Y-78460000D03*
X116420000Y-81000000D03*
X126580000Y-83540000D03*
D16*
X105380000Y-113190000D03*
X105380000Y-115730000D03*
X105380000Y-118270000D03*
X105380000Y-120810000D03*
X113000000Y-120810000D03*
X113000000Y-118270000D03*
X113000000Y-115730000D03*
X113000000Y-113190000D03*
D17*
X163468150Y-140750000D03*
D18*
X160928150Y-140750000D03*
X158388150Y-140750000D03*
X155848150Y-140750000D03*
D19*
X150750000Y-132830000D03*
D20*
X150750000Y-130290000D03*
X150750000Y-127750000D03*
X150750000Y-125210000D03*
D10*
G36*
X148855077Y-76359886D02*
X150577062Y-75556911D01*
X151380037Y-77278896D01*
X149658052Y-78081871D01*
X148855077Y-76359886D01*
X148855077Y-76359886D01*
G37*
G36*
X151120846Y-75303340D02*
X152842831Y-74500365D01*
X153645806Y-76222350D01*
X151923821Y-77025325D01*
X151120846Y-75303340D01*
X151120846Y-75303340D01*
G37*
G36*
X153477247Y-74204533D02*
X155199232Y-73401558D01*
X156002207Y-75123543D01*
X154280222Y-75926518D01*
X153477247Y-74204533D01*
X153477247Y-74204533D01*
G37*
G36*
X160773024Y-70802456D02*
X162495009Y-69999481D01*
X163297984Y-71721466D01*
X161575999Y-72524441D01*
X160773024Y-70802456D01*
X160773024Y-70802456D01*
G37*
G36*
X163038794Y-69745910D02*
X164760779Y-68942935D01*
X165563754Y-70664920D01*
X163841769Y-71467895D01*
X163038794Y-69745910D01*
X163038794Y-69745910D01*
G37*
G36*
X170938702Y-86805628D02*
X172660687Y-86002653D01*
X173463662Y-87724638D01*
X171741677Y-88527613D01*
X170938702Y-86805628D01*
X170938702Y-86805628D01*
G37*
G36*
X168582301Y-87904435D02*
X170304286Y-87101460D01*
X171107261Y-88823445D01*
X169385276Y-89626420D01*
X168582301Y-87904435D01*
X168582301Y-87904435D01*
G37*
G36*
X159519224Y-92130618D02*
X161241209Y-91327643D01*
X162044184Y-93049628D01*
X160322199Y-93852603D01*
X159519224Y-92130618D01*
X159519224Y-92130618D01*
G37*
G36*
X157162823Y-93229425D02*
X158884808Y-92426450D01*
X159687783Y-94148435D01*
X157965798Y-94951410D01*
X157162823Y-93229425D01*
X157162823Y-93229425D01*
G37*
D21*
X180500000Y-75750000D03*
D11*
X183040000Y-75750000D03*
D22*
X128509023Y-112981476D03*
X121750000Y-116500000D03*
D23*
X123750000Y-133250000D03*
X123750000Y-131250000D03*
X123750000Y-129250000D03*
X123750000Y-135250000D03*
D24*
X174500000Y-72750000D03*
D25*
X177040000Y-72750000D03*
D26*
X132750000Y-55500000D03*
D27*
X132750000Y-58040000D03*
X135290000Y-55500000D03*
X135290000Y-58040000D03*
X137830000Y-55500000D03*
X137830000Y-58040000D03*
X140370000Y-55500000D03*
X140370000Y-58040000D03*
X142910000Y-55500000D03*
X142910000Y-58040000D03*
X145450000Y-55500000D03*
X145450000Y-58040000D03*
X147990000Y-55500000D03*
X147990000Y-58040000D03*
X150530000Y-55500000D03*
X150530000Y-58040000D03*
X153070000Y-55500000D03*
X153070000Y-58040000D03*
X155610000Y-55500000D03*
X155610000Y-58040000D03*
X158150000Y-55500000D03*
X158150000Y-58040000D03*
X160690000Y-55500000D03*
X160690000Y-58040000D03*
X163230000Y-55500000D03*
X163230000Y-58040000D03*
D24*
X99750000Y-82790000D03*
D25*
X99750000Y-80250000D03*
D24*
X93750000Y-79750000D03*
D25*
X91210000Y-79750000D03*
D24*
X180040000Y-110000000D03*
D25*
X177500000Y-110000000D03*
D28*
X131976698Y-84288414D03*
X132591179Y-86752965D03*
X133205661Y-89217516D03*
X133820143Y-91682067D03*
X134434624Y-94146618D03*
X136899175Y-93532137D03*
X135049106Y-96611169D03*
X135663587Y-99075720D03*
X136278069Y-101540272D03*
X136892551Y-104004823D03*
X137507032Y-106469374D03*
X138121514Y-108933925D03*
X138735995Y-111398476D03*
X141200547Y-110783995D03*
X143665098Y-110169513D03*
X146129649Y-109555031D03*
X148594200Y-108940550D03*
X151058751Y-108326068D03*
X153523302Y-107711586D03*
X152908821Y-105247035D03*
X152294339Y-102782484D03*
X151679857Y-100317933D03*
X146757380Y-91074210D03*
X148607449Y-87995177D03*
X147992968Y-85530626D03*
X149221931Y-90459728D03*
X149836413Y-92924280D03*
X146764005Y-80601524D03*
X147378486Y-83066075D03*
X151065376Y-97853382D03*
X150450894Y-95388831D03*
D11*
X97250000Y-56800000D03*
X111500000Y-55000000D03*
X111500000Y-51000000D03*
X111500000Y-59000000D03*
X111500000Y-47000000D03*
D29*
X128250000Y-66000000D03*
X114750000Y-66000000D03*
X114750000Y-48000000D03*
X128250000Y-48000000D03*
D30*
X106750000Y-61000000D03*
X106750000Y-45000000D03*
D29*
X105250000Y-57000000D03*
X105250000Y-53000000D03*
X108250000Y-49000000D03*
X108250000Y-53000000D03*
D31*
X174500000Y-54750000D03*
X174500000Y-60750000D03*
X174500000Y-62750000D03*
D11*
X184500000Y-63750000D03*
X184500000Y-53750000D03*
D31*
X98250000Y-90500000D03*
X98250000Y-88500000D03*
X98250000Y-86500000D03*
X98250000Y-92500000D03*
X98250000Y-94500000D03*
D11*
X88250000Y-95500000D03*
X88250000Y-85500000D03*
X144750000Y-75750000D03*
D19*
X99750000Y-65210000D03*
D20*
X99750000Y-67750000D03*
X99750000Y-70290000D03*
X99750000Y-72830000D03*
D32*
X94667000Y-72540000D03*
X94667000Y-70000000D03*
X94667000Y-67968000D03*
X94667000Y-65428000D03*
D33*
X92000000Y-75588000D03*
X92000000Y-61872000D03*
D11*
X99750000Y-76500000D03*
D26*
X142250000Y-44460000D03*
D27*
X142250000Y-47000000D03*
X144790000Y-44460000D03*
X144790000Y-47000000D03*
X147330000Y-44460000D03*
X147330000Y-47000000D03*
X149870000Y-44460000D03*
X149870000Y-47000000D03*
X152410000Y-44460000D03*
X152410000Y-47000000D03*
X154950000Y-44460000D03*
X154950000Y-47000000D03*
X157490000Y-44460000D03*
X157490000Y-47000000D03*
X160030000Y-44460000D03*
X160030000Y-47000000D03*
X162570000Y-44460000D03*
X162570000Y-47000000D03*
X165110000Y-44460000D03*
X165110000Y-47000000D03*
X167650000Y-44460000D03*
X167650000Y-47000000D03*
X170190000Y-44460000D03*
X170190000Y-47000000D03*
X172730000Y-44460000D03*
X172730000Y-47000000D03*
D11*
X135250000Y-49000000D03*
X137750000Y-46500000D03*
X132750000Y-51500000D03*
X170750000Y-62750000D03*
X170750000Y-54750000D03*
X117250000Y-71750000D03*
X117250000Y-74750000D03*
M02*
